<svg width="12" height="12" viewBox="0 0 12 12" fill="none" xmlns="http://www.w3.org/2000/svg">
<path d="M6.78947 1.78947C6.78947 1.58009 6.7063 1.37929 6.55824 1.23123C6.41019 1.08318 6.20938 1 6 1C5.79062 1 5.58981 1.08318 5.44176 1.23123C5.2937 1.37929 5.21053 1.58009 5.21053 1.78947V5.21053H1.78947C1.58009 5.21053 1.37929 5.2937 1.23123 5.44176C1.08318 5.58981 1 5.79062 1 6C1 6.20938 1.08318 6.41019 1.23123 6.55824C1.37929 6.7063 1.58009 6.78947 1.78947 6.78947H5.21053V10.2105C5.21053 10.4199 5.2937 10.6207 5.44176 10.7688C5.58981 10.9168 5.79062 11 6 11C6.20938 11 6.41019 10.9168 6.55824 10.7688C6.7063 10.6207 6.78947 10.4199 6.78947 10.2105V6.78947H10.2105C10.4199 6.78947 10.6207 6.7063 10.7688 6.55824C10.9168 6.41019 11 6.20938 11 6C11 5.79062 10.9168 5.58981 10.7688 5.44176C10.6207 5.2937 10.4199 5.21053 10.2105 5.21053H6.78947V1.78947Z" fill="white"/>
</svg>
